<svg xmlns="http://www.w3.org/2000/svg"  viewBox="0 0 32 32" width="100px" height="100px"><path d="M9.459 31.325L8.577 28.867 10.46 28.192 10.591 28.558 10.94 28.389 11.811 30.189zM7.483 25.817l-.511-1.427c-.33-.312-.642-.641-.932-.982l1.523-1.296c.289.34.605.667.94.971l.185.167.678 1.891L7.483 25.817zM4.163 20.44c-.483-1.08-.805-2.219-.955-3.387l1.983-.256c.125.974.394 1.924.797 2.826L4.163 20.44zM14.756 28.766l-.87-1.801 2.09-1.009.22-.004c.353-.006.701-.028 1.044-.065l.218 1.988c-.332.036-.667.06-1.005.071L14.756 28.766zM20.852 27.039l-.733-1.86c.925-.365 1.795-.851 2.585-1.445l1.201 1.599C22.972 26.034 21.944 26.608 20.852 27.039zM26.393 22.864l-1.592-1.211c.603-.792 1.084-1.657 1.433-2.57l1.869.712C27.686 20.887 27.111 21.92 26.393 22.864zM28.862 16.355l-1.995-.139c.017-.236.025-.475.025-.715 0-.745-.082-1.489-.245-2.213l1.951-.439c.195.868.294 1.76.294 2.653C28.892 15.789 28.882 16.073 28.862 16.355zM5.243 13.853l-1.973-.327c.192-1.16.555-2.288 1.077-3.351l1.795.883C5.706 11.945 5.404 12.885 5.243 13.853zM25.589 10.548c-.481-.855-1.085-1.642-1.795-2.34l1.403-1.426c.843.83 1.561 1.766 2.134 2.784L25.589 10.548zM7.805 8.625L6.328 7.276C7.115 6.414 8.021 5.66 9.02 5.037l1.059 1.696C9.234 7.26 8.47 7.896 7.805 8.625zM21.422 6.439c-.867-.479-1.796-.841-2.762-1.074l.47-1.944c1.14.276 2.237.703 3.26 1.269L21.422 6.439zM12.779 5.516l-.571-1.917c1.115-.332 2.276-.516 3.451-.545l.05 1.999C14.71 5.079 13.725 5.234 12.779 5.516zM11.234 26.712L10.6 22.274C8.374 20.67 7.058 18.17 7.058 15.5 7.059 10.813 11.07 7 16 7c4.93 0 8.941 3.813 8.941 8.5 0 4.687-4.011 8.5-8.941 8.5-.222 0-.441-.009-.659-.026zM16 9c-3.828 0-6.941 2.916-6.941 6.5 0 2.138 1.126 4.14 3.012 5.356l.383.247.312 2.184 2.063-1.375.362.04C15.457 21.981 15.726 22 16 22 19.828 22 22.941 19.084 22.941 15.5 22.941 11.916 19.828 9 16 9z"/></svg>